<?xml version="1.0" encoding="utf-8"?>
<!-- Generator: Adobe Illustrator 25.0.1, SVG Export Plug-In . SVG Version: 6.00 Build 0)  -->
<svg version="1.1" id="Capa_1" xmlns="http://www.w3.org/2000/svg" xmlns:xlink="http://www.w3.org/1999/xlink" x="0px" y="0px"
	 viewBox="0 0 411.1199951 91.6800003" style="enable-background:new 0 0 411.1199951 91.6800003;" xml:space="preserve">
<style type="text/css">
	.st0{fill:#007A98;}
	.st1{fill:#F19800;}
	.st2{fill:#89878C;}
	.st3{fill:#FFFFFF;}
</style>
<g>
	<polygon class="st0" points="70.7034073,44.9931831 78.673378,44.9931831 78.673378,83.3332062 99.3183975,83.3332062 
		99.3183975,90.4241791 70.7034073,90.4241791 	"/>
	<g>
		<path class="st0" d="M102.3205338,68.8379974V44.9930305h7.9689941v23.3439903
			c0,5.3329773,0.4400024,8.4079895,1.7569885,10.7290039c1.506012,2.6359863,4.3300171,4.7689819,9.6010132,4.7689819
			c4.7689819,0,7.655983-1.7559814,9.2869949-4.5809937c1.4429932-2.446991,1.8200073-5.8349915,1.8200073-10.7919922V44.9930305
			h7.7179871v23.3439903c0,6.7129822-0.6900024,11.7330017-3.2630005,15.5610046
			c-3.1369934,4.6439819-8.8479919,7.2159729-15.8759842,7.2159729c-7.2790222,0-12.8010254-2.7599792-15.8130188-7.3409729
			C103.0105057,80.0070038,102.3205338,74.9880219,102.3205338,68.8379974"/>
		<rect x="149.0138397" y="44.993" class="st0" width="7.9700012" height="45.4309998"/>
		<path class="st0" d="M165.1321259,79.4424896c4.5179749,3.1380005,10.1029968,4.5190125,13.867981,4.5190125
			c4.5809937,0,7.7810059-1.9459839,7.7810059-6.0870056c0-5.019989-4.7690125-5.7109985-10.6679993-7.4679871
			c-6.526001-2.0079956-12.2990112-4.8950195-12.2990112-12.8640099c0-8.2829895,6.0870056-13.2409973,15.3110046-13.2409973
			c4.3930054,0,9.6640015,1.1300049,13.4920044,3.3890076v8.0320129c-4.5190125-2.9480286-9.8519897-4.2660217-13.5539856-4.2660217
			c-4.2670288,0-7.2800293,1.6940002-7.2800293,5.5220032c0,4.7690125,4.7690125,5.3970032,10.2290039,7.0899925
			c6.7140198,2.0710144,12.7390137,5.0209961,12.7390137,13.3659973c0,8.5339966-6.3389893,13.6790161-15.8139954,13.6790161
			c-4.4550171,0-9.7890015-1.1289978-13.8049927-3.3250122V79.4424896z"/>
		<path class="st1" d="M241.2241974,90.424118h-8.4719849l-4.3300171-11.1070251h-19.5780029l-4.3929749,11.1070251h-8.2200012
			l18.6369934-45.4309959h7.7810059L241.2241974,90.424118z M211.4172211,72.7910919h14.4329834l-2.6359863-6.8399963
			c-1.5680237-4.0789757-3.0750122-8.0949974-4.5180054-12.1730003h-0.1260071
			c-1.506012,4.20401-2.947998,8.0940247-4.5180054,12.1730003L211.4172211,72.7910919z"/>
		<path class="st1" d="M245.2908173,44.9931831h7.7189941l14.8089752,21.1460228l14.8089905-21.1460228h7.5930176v45.4309959
			h-7.9700012V67.9582062c0-3.4490051,0-6.7130089,0.0629883-9.8510094l-0.125-0.0629883
			c-1.8829956,2.8869934-3.8909912,5.7099915-6.0239868,8.7849998l-8.5350037,12.1749878l-8.5339966-12.1749878
			c-2.1340027-3.0750084-4.1410065-5.8980064-6.0240021-8.7849998l-0.1259766,0.0629883
			c0.0639954,3.1380005,0.0639954,6.4020042,0.0639954,9.8510094v22.4659729h-7.7189941V44.9931831z"/>
		<rect x="299.1318054" y="44.993" class="st1" width="7.9700012" height="45.4309998"/>
		<path class="st1" d="M337.9910278,44.3018074c5.7729492,0,10.5419922,1.632019,13.9309692,3.6400146v8.3450012
			c-3.7020264-2.822998-8.7230225-4.7690125-13.8690186-4.7690125c-9.9140015,0-16.5019531,7.2180176-16.5019531,16.2530174
			c0,8.7859802,6.2119751,16.2519836,16.5650024,16.2519836c2.7619629,0,5.3969727-0.5650024,7.4049683-1.5679932v-8.7229919
			h-9.0360107v-6.776001h16.8800049v19.9539795c-4.0789795,2.5100098-9.8519897,4.20401-15.625,4.20401
			c-13.992981,0-24.1589661-9.7879944-24.1589661-23.2799988C313.5810242,54.467823,323.6829834,44.3018074,337.9910278,44.3018074"
			/>
		<path class="st1" d="M358.800293,67.7086029c0-13.2409935,10.039978-23.4069786,23.4060059-23.4069786
			c13.3659668,0,23.4060059,10.1659851,23.4060059,23.4069786c0,13.2410278-10.0400391,23.4050293-23.4060059,23.4050293
			C368.840271,91.1136322,358.800293,80.9496307,358.800293,67.7086029 M397.6433105,67.7086029
			c0-9.0369835-6.5890503-16.1269798-15.4370117-16.1269798c-8.8480225,0-15.4370117,7.0899963-15.4370117,16.1269798
			c0,9.0370178,6.5889893,16.1260071,15.4370117,16.1260071C391.0542603,83.83461,397.6433105,76.7456207,397.6433105,67.7086029"/>
		<polygon class="st0" points="391.4729004,36.0342903 377.3048706,36.0342903 390.6488647,9.017292 410.0888672,9.017292 		"/>
		<path class="st2" d="M78.8230362,36.491291c-5.4420166,0-8.0050049-3.1939697-8.0050049-9.9769897V9.241291h3.7850037v17.5490112
			c0,4.2980042,1.3809814,6.3089905,4.3779907,6.3089905s4.3769836-1.9709778,4.3769836-6.2299805V9.241291h3.7460022v17.2330017
			C87.1040115,33.2583199,84.4630203,36.491291,78.8230362,36.491291"/>
		<polygon class="st2" points="94.2561111,15.9062996 94.2161026,15.9062996 94.2161026,35.9393196 90.4701004,35.9393196 
			90.4701004,9.2413216 94.8870926,9.2413216 103.2861099,28.4863167 103.326088,28.4863167 103.326088,9.2413216 
			107.0720901,9.2413216 107.0720901,35.9393196 103.0890884,35.9393196 		"/>
		<rect x="110.5598221" y="9.241993" class="st2" width="3.8250122" height="26.696991"/>
		<polygon class="st2" points="115.6594315,9.2418098 119.7214127,9.2418098 124.8084183,30.8518257 124.8874283,30.8518257 
			130.0134125,9.2418098 133.7214203,9.2418098 126.8194046,35.9388313 122.5994034,35.9388313 		"/>
		<polygon class="st2" points="135.0427399,9.2418098 147.5437164,9.2418098 147.5437164,12.7518196 138.8677216,12.7518196 
			138.8677216,20.440815 146.4397125,20.440815 146.4397125,23.9118233 138.8677216,23.9118233 138.8677216,32.4288216 
			147.6227264,32.4288216 147.6227264,35.9388313 135.0427399,35.9388313 		"/>
		<path class="st2" d="M161.2172089,35.9392281l-4.6929932-11.1600037h-2.9179993v11.1600037h-3.8250122V9.2422066h6.5849915
			c5.2059937,0,7.730011,2.4440002,7.730011,7.3740234c0,3.3909912-1.4599915,5.8359985-3.9049988,7.0589905l5.3639832,12.2640076
			H161.2172089z M160.2702179,16.9312019c0-2.8779907-1.2620239-4.2589722-3.9040222-4.2589722h-2.7599792v8.7549744h2.7999878
			C158.890213,21.4272041,160.2702179,19.8492317,160.2702179,16.9312019"/>
		<path class="st2" d="M178.2385406,13.3428841c-1.8930054-0.8279724-3.3130188-1.2229919-4.6140137-1.2229919
			c-2.1300049,0-3.3129883,1.1440125-3.3129883,3.1560059c0,5.598999,8.8339844,6.071991,8.8339844,14.0379944
			c0,4.6140137-2.6419983,7.177002-7.1380005,7.177002c-1.9719849,0-3.9830017-0.5910034-5.7569885-1.5769958v-3.7070007
			c1.8930054,1.1040039,3.9429932,1.9320068,5.5599976,1.9320068c2.2080078,0,3.4309998-1.3009949,3.4309998-3.5490112
			c0-5.8359985-8.8340149-6.3089905-8.8340149-14.1569824c0-4.2980042,2.5630188-6.70401,6.980011-6.70401
			c1.7349854,0,3.2340088,0.3150024,4.8510132,1.0249939V13.3428841z"/>
		<rect x="181.0828094" y="9.241993" class="st2" width="3.8250122" height="26.696991"/>
		<path class="st2" d="M194.3458099,35.9390144h-5.9949951V9.241993h6.1919861
			c7.0190125,0,10.7260132,4.6920166,10.7260132,13.053009C205.2688141,31.0099983,201.4438019,35.9390144,194.3458099,35.9390144
			 M194.2668304,12.6719856h-2.0900269v19.7970276h2.0500183c4.7319946,0,7.1779785-3.6280212,7.1779785-10.0950012
			C201.4048004,16.1819954,198.9588165,12.6719856,194.2668304,12.6719856"/>
		<path class="st2" d="M217.7158966,29.1562386h-7.6109924l-1.5769958,6.7829895h-3.7860107l7.059021-26.696991h4.4559937
			l7.0589905,26.696991h-3.9830017L217.7158966,29.1562386z M216.8879242,25.7252083l-2.9970093-12.4609985h-0.0390015
			l-2.9190063,12.4609985H216.8879242z"/>
		<path class="st2" d="M230.7393951,35.9390144h-5.993988V9.241993h6.190979c7.0190125,0,10.7260132,4.6920166,10.7260132,13.053009
			C241.6623993,31.0099983,237.8373871,35.9390144,230.7393951,35.9390144 M230.6604156,12.6719856h-2.0900269v19.7970276h2.0500183
			c4.7330017,0,7.1779785-3.6280212,7.1779785-10.0950012C237.7983856,16.1819954,235.3534088,12.6719856,230.6604156,12.6719856"/>
		<path class="st2" d="M260.7121277,12.0811043c-4.5350037,0-7.0990143,3.7850037-7.0990143,10.4890137
			c0,6.743988,2.6420135,10.4899902,7.3350067,10.4899902c1.6170044,0,3.3919983-0.3939819,4.8899841-1.1040039v3.4309998
			c-1.6949768,0.710022-3.7070007,1.1040039-5.598999,1.1040039c-6.7439728,0-10.608963-4.9689941-10.608963-13.7229919
			c0-8.9920044,3.7469788-14.0400085,10.411972-14.0400085c1.9710083,0,3.9029846,0.3950195,5.3619995,1.105011v3.5100098
			C263.9851074,12.5541267,262.2891235,12.0811043,260.7121277,12.0811043"/>
		<path class="st2" d="M279.397583,29.1562386h-7.6109924l-1.5769958,6.7829895h-3.7860107l7.059021-26.696991h4.4559937
			l7.0589905,26.696991h-3.9830017L279.397583,29.1562386z M278.5696106,25.7252083l-2.9970093-12.4609985h-0.0400085
			l-2.9179993,12.4609985H278.5696106z"/>
		<polygon class="st2" points="291.7502136,35.9389839 287.9252014,35.9389839 287.9252014,12.7520027 281.9701843,12.7520027 
			281.9701843,9.241993 297.6651917,9.241993 297.6651917,12.7520027 291.7502136,12.7520027 		"/>
		<path class="st2" d="M297.2522888,22.7680244c0-8.9920044,3.5490112-14.0390015,9.8980103-14.0390015
			c6.269989,0,9.7799988,4.9689941,9.7799988,13.8410034c0,8.8729858-3.5490112,13.92099-9.8980103,13.92099
			C300.7622986,36.4910164,297.2522888,31.5620003,297.2522888,22.7680244 M312.9472961,22.6100044
			c0-6.7039795-2.1289978-10.4899902-5.8359985-10.4899902c-3.7460022,0-5.8760071,3.7860107-5.8760071,10.4899902
			c0,6.70401,2.1300049,10.4900208,5.8760071,10.4900208C310.8182983,33.1000252,312.9472961,29.3140144,312.9472961,22.6100044
			 M311.3703003,0.5659979L308.01828,6.8360176h-2.4060059l1.9720154-6.2700195H311.3703003z"/>
		<polygon class="st2" points="319.3811035,9.2418098 323.2060547,9.2418098 323.2060547,32.4288216 331.9610596,32.4288216 
			331.9610596,35.9388313 319.3811035,35.9388313 		"/>
		<rect x="333.2398071" y="9.241993" class="st2" width="3.8250122" height="26.696991"/>
		<path class="st2" d="M350.5285034,12.0811043c-4.5350342,0-7.0990601,3.7850037-7.0990601,10.4890137
			c0,6.743988,2.6420288,10.4899902,7.3360596,10.4899902c1.6169434,0,3.3909912-0.3939819,4.8889771-1.1040039v3.4309998
			c-1.6950073,0.710022-3.7070313,1.1040039-5.598999,1.1040039c-6.7440186,0-10.6090088-4.9689941-10.6090088-13.7229919
			c0-8.9920044,3.7470093-14.0400085,10.4119873-14.0400085c1.9710083,0,3.9030151,0.3950195,5.3619995,1.105011v3.5100098
			C353.8014526,12.5541267,352.1054688,12.0811043,350.5285034,12.0811043"/>
		<path class="st2" d="M369.2149658,29.1562386h-7.6119995l-1.5770264,6.7829895h-3.7860107l7.059021-26.696991h4.4570313
			l7.0579834,26.696991h-3.9830322L369.2149658,29.1562386z M368.3859863,25.7252083l-2.9970093-12.4609985h-0.0390015
			l-2.9190063,12.4609985H368.3859863z"/>
		<path class="st3" d="M1.5759225,9.9814949h59.1839905v60.136013c0,0,1.5850067,20.1990051-26.8439941,20.1929932H20.7219181
			c0,0-17.0319977-2.1210022-19.1459961-18.6080017V9.9814949z"/>
		<path class="st0" d="M20.6814213,12.1016121H3.9004159c0,0-0.0070038,13.2080078-0.0090027,17.5170288
			c39.7389984,9.7769775,37.6410065,40.8299828,38.1130066,58.2239647
			c9.5059967-1.3649902,16.7850037-8.6159973,16.7850037-17.3319702V50.8786201
			C21.3914127,51.304615,20.6744175,15.1626167,20.6814213,12.1016121"/>
		<path class="st0" d="M37.3279228,33.2676888c-13.1410084-4.8529968-15.7980061-19.2689819-16.0930042-21.1659851h-0.5120087
			c5.8119965,33.5419922,34.8809967,19.2720032,38.0640106,17.598999c-0.0080109-3.9519958,0.0179901-17.598999,0.0179901-17.598999
			H41.8979149C36.9899101,20.7007027,37.3279228,33.2676888,37.3279228,33.2676888"/>
		<path class="st0" d="M31.0886173,56.4962044c8.3099995,4.9240112,9.3149891,28.6760216,9.4059925,31.510006
			c0.4970093-0.0369873,0.9889984-0.0889893,1.4750061-0.1579895c-1.6130066-15.5310059-3.4380035-27.6580162-10.199007-32.5800133
			C21.1306095,47.5212288,6.1016183,50.6442146,3.8916116,50.859211v19.6509972
			c0,8.7780151,7.3800054,16.0720215,16.9859924,17.3640137C22.3796177,84.6562042,32.3606071,62.9332161,31.0886173,56.4962044"/>
		<path class="st0" d="M38.756115,90.9369965H23.9261112c-12.624999,0-22.894989-9.1629944-22.894989-20.427002V30.9440193
			c0-0.6650085,0.0039978-21.7019958,0.0039978-21.7019958h60.6150055v21.7019958v39.5659752
			C61.6501274,81.7740021,51.3801231,90.9369965,38.756115,90.9369965 M2.5271249,10.7339973
			c0,0-0.0040131,19.5460205-0.0040131,20.210022v39.5659752c0,10.4410095,9.6010132,18.9349976,21.4029999,18.9349976H38.756115
			c11.8010101,0,21.401001-8.493988,21.401001-18.9349976V30.9440193c0-0.6629944-0.0309906-20.210022-0.0309906-20.210022
			H2.5271249z"/>
	</g>
</g>
</svg>
