<?xml version="1.0" encoding="UTF-8" standalone="no"?>
<svg
   width="259.5556"
   height="241.63879"
   viewBox="0 0 68.674085 63.933599"
   version="1.1"
   id="svg1400"
   inkscape:version="1.1-dev (13b01110b3, 2020-09-07, custom)"
   sodipodi:docname="coreofscience.svg"
   xmlns:inkscape="http://www.inkscape.org/namespaces/inkscape"
   xmlns:sodipodi="http://sodipodi.sourceforge.net/DTD/sodipodi-0.dtd"
   xmlns="http://www.w3.org/2000/svg"
   xmlns:svg="http://www.w3.org/2000/svg">
  <defs
     id="defs1396" />
  <sodipodi:namedview
     id="base"
     pagecolor="#ffffff"
     bordercolor="#666666"
     borderopacity="1.0"
     inkscape:pageopacity="0.0"
     inkscape:pageshadow="2"
     inkscape:zoom="0.35"
     inkscape:cx="210"
     inkscape:cy="615.71429"
     inkscape:document-units="px"
     inkscape:current-layer="layer1"
     showgrid="false"
     lock-margins="true"
     units="px"
     fit-margin-top="0"
     fit-margin-left="0"
     fit-margin-right="0"
     fit-margin-bottom="0"
     inkscape:window-width="1708"
     inkscape:window-height="1360"
     inkscape:window-x="1724"
     inkscape:window-y="35"
     inkscape:window-maximized="0" />
  <g
     inkscape:label="Layer 1"
     inkscape:groupmode="layer"
     id="layer1"
     transform="translate(-50.329625,14.579894)">
    <path
       d="m 70.515075,3.5364793 c 0,-0.150283 0.0088,-0.301625 0.02364,-0.453672 -1.01988,0.741892 -1.99143,1.565628 -2.900538,2.474736 -3.979334,3.979333 -6.394803,9.1048417 -6.938081,14.6318107 0.8763,-0.600075 1.929342,-0.954265 3.053292,-0.954265 0.222955,0 0.441678,0.01834 0.65793,0.04516 0.812448,-5.012618 3.442406,-9.4135217 7.1882,-12.5130267 -0.675569,-0.8509 -1.084439,-1.928636 -1.084439,-3.230739"
       style="fill:#070e3c;fill-opacity:1;fill-rule:nonzero;stroke:none;stroke-width:0.352777"
       id="path236" />
    <path
       d="m 101.6994,5.5577193 c -0.89712,-0.896761 -1.854205,-1.711325 -2.858916,-2.445808 -0.06879,1.291872 -0.600427,2.47403 -1.431925,3.383844 3.930651,3.117145 6.693251,7.6429297 7.523341,12.8150047 0.72707,-0.09983 1.46085,-0.06667 2.13818,0.119591 0.58562,0.161222 1.1042,0.399347 1.55893,0.6985 -0.55527,-5.504037 -2.9658,-10.6069677 -6.92961,-14.5711317"
       style="fill:#070e3c;fill-opacity:1;fill-rule:nonzero;stroke:none;stroke-width:0.352777"
       id="path240" />
    <path
       d="m 91.57873,41.919334 c -2.159352,0.772232 -4.485216,1.195917 -6.91021,1.195917 -2.38478,0 -4.672896,-0.409575 -6.801556,-1.158169 -0.114652,0.357365 -0.264232,0.70344 -0.454732,1.027994 -0.48401,0.826206 -1.133121,1.459796 -1.876777,1.901121 2.860675,1.171221 5.949244,1.787171 9.133065,1.787171 3.282595,0 6.462535,-0.655813 9.396587,-1.89865 -1.127829,-0.627238 -2.017183,-1.642886 -2.486377,-2.855384"
       style="fill:#070e3c;fill-opacity:1;fill-rule:nonzero;stroke:none;stroke-width:0.352777"
       id="path244" />
    <path
       d="m 86.467226,21.783767 v -5.7023 c -0.531283,0.380648 -1.17616,0.608542 -1.867604,0.608542 -0.07056,0 -0.139348,-0.0063 -0.20955,-0.0113 -0.0695,0.0049 -0.138289,0.0113 -0.208846,0.0113 -0.449791,0 -0.880179,-0.09631 -1.272116,-0.267404 v 5.325533 l -4.543777,2.555521 c 0.754239,0.598313 1.245658,1.518004 1.245658,2.537531 0,0.319617 -0.04939,0.62865 -0.138642,0.921809 l 5.184069,-2.915357 4.741688,2.666648 c -0.171098,-0.759883 -0.07444,-1.579033 0.353835,-2.310693 0.244827,-0.416632 0.58279,-0.761296 0.97296,-1.024821 z"
       style="fill:#070e3c;fill-opacity:1;fill-rule:nonzero;stroke:none;stroke-width:0.352777"
       id="path248" />
    <path
       d="m 66.863966,16.287138 c -9.117541,0 -16.534341,7.4168 -16.534341,16.533284 0,9.116481 7.4168,16.533281 16.534341,16.533281 9.116836,0 16.533636,-7.4168 16.533636,-16.533281 0,-9.116484 -7.4168,-16.533284 -16.533636,-16.533284 m 0,3.558469 c 7.166328,0 12.975167,5.809544 12.975167,12.974815 0,7.16562 -5.808839,12.975164 -12.975167,12.975164 -7.16668,0 -12.976224,-5.809544 -12.976224,-12.975164 0,-7.165271 5.809544,-12.974815 12.976224,-12.974815"
       style="fill:#f19a15;fill-opacity:1;fill-rule:nonzero;stroke:none;stroke-width:0.352777"
       id="path252" />
    <path
       d="m 102.46972,16.287138 c -9.115776,0 -16.532224,7.4168 -16.532224,16.533284 0,9.116481 7.416448,16.533281 16.532224,16.533281 9.11684,0 16.53399,-7.4168 16.53399,-16.533281 0,-9.116484 -7.41715,-16.533284 -16.53399,-16.533284 m 0,3.558469 c 7.16633,0 12.97587,5.809544 12.97587,12.974815 0,7.16562 -5.80954,12.975164 -12.97587,12.975164 -7.164916,0 -12.974107,-5.809544 -12.974107,-12.975164 0,-7.165271 5.809191,-12.974815 12.974107,-12.974815"
       style="fill:#904d18;fill-opacity:1;fill-rule:nonzero;stroke:none;stroke-width:0.352777"
       id="path256" />
    <path
       d="m 84.702315,-14.579894 c -9.116483,0 -16.533283,7.4168 -16.533283,16.5336363 0,9.1161297 7.4168,16.5325757 16.533283,16.5325757 9.116835,0 16.533995,-7.416446 16.533995,-16.5325757 0,-9.1168363 -7.41716,-16.5336363 -16.533995,-16.5336363 m 0,3.558117 c 7.166327,0 12.975519,5.8095441 12.975519,12.9755193 0,7.165269 -5.809192,12.9748137 -12.975519,12.9748137 -7.165975,0 -12.975166,-5.8095447 -12.975166,-12.9748137 0,-7.1659752 5.809191,-12.9755193 12.975166,-12.9755193"
       style="fill:#009e35;fill-opacity:1;fill-rule:nonzero;stroke:none;stroke-width:0.352777"
       id="path260" />
  </g>
</svg>
